<?xml version="1.0" encoding="UTF-8" standalone="no"?>
<!-- Created with Inkscape (http://www.inkscape.org/) -->

<svg
   width="656.38727"
   height="143.45453"
   viewBox="0 0 656.38727 143.45453"
   version="1.1"
   id="svg1"
   xmlns:xlink="http://www.w3.org/1999/xlink"
   xmlns="http://www.w3.org/2000/svg"
   xmlns:svg="http://www.w3.org/2000/svg">
  <defs
     id="defs1">
    <linearGradient
       id="linearGradient1">
      <stop
         style="stop-color:#7ed380;stop-opacity:1;"
         offset="0"
         id="stop1" />
      <stop
         style="stop-color:#0c9bdd;stop-opacity:1;"
         offset="1"
         id="stop2" />
    </linearGradient>
    <linearGradient
       xlink:href="#linearGradient1"
       id="linearGradient2"
       x1="240.78151"
       y1="320.13019"
       x2="1260.6799"
       y2="508.49509"
       gradientUnits="userSpaceOnUse" />
  </defs>
  <g
     id="layer1"
     transform="translate(-239.12918,-281.4494)">
    <path
       style="font-weight:bold;font-size:192px;font-family:INTER;-inkscape-font-specification:'INTER Bold';fill:url(#linearGradient2)"
       d="m 302.6754,283.35848 h 29.18182 v 97.36364 q 0,13.5 -6.06819,23.45454 -6,9.95455 -16.70454,15.34091 -10.70455,5.38636 -24.88636,5.38636 -12.61364,0 -22.9091,-4.43181 -10.22727,-4.5 -16.22727,-13.63637 -6,-9.20454 -5.93182,-23.11363 h 29.38637 q 0.13636,5.52272 2.25,9.47727 2.18182,3.88636 5.93182,6 3.81818,2.04545 9,2.04545 5.45454,0 9.20454,-2.31818 3.81818,-2.38636 5.79546,-6.95454 1.97727,-4.56819 1.97727,-11.25 z m 77.59097,139.63636 h -31.63636 l 48.20455,-139.63636 h 38.04545 l 48.13636,139.63636 H 451.38001 L 416.40274,315.26757 h -1.09091 z m -1.97727,-54.88636 h 74.72727 v 23.04545 H 378.2891 Z m 238.15929,-35.86364 h -29.86363 q -0.81819,-5.79545 -3.34091,-10.29545 -2.52273,-4.56818 -6.47728,-7.77273 -3.95454,-3.20454 -9.13636,-4.90909 -5.11364,-1.70455 -11.11364,-1.70455 -10.84091,0 -18.88636,5.38637 -8.04545,5.31818 -12.47727,15.54545 -4.43182,10.15909 -4.43182,24.68182 0,14.93182 4.43182,25.09091 4.5,10.15909 12.54545,15.34091 8.04546,5.18182 18.61364,5.18182 5.93182,0 10.97727,-1.56818 5.11364,-1.56819 9.06818,-4.56819 3.95455,-3.06818 6.54546,-7.43181 2.65909,-4.36364 3.68182,-9.95455 l 29.86363,0.13636 q -1.15909,9.61364 -5.79545,18.54546 -4.56818,8.86363 -12.34091,15.88636 -7.70455,6.95455 -18.40909,11.04546 -10.63637,4.02272 -24.06818,4.02272 -18.68182,0 -33.4091,-8.45454 -14.65909,-8.45455 -23.18181,-24.47727 -8.45455,-16.02273 -8.45455,-38.79546 0,-22.84091 8.59091,-38.86364 8.59091,-16.02272 23.31818,-24.40909 14.72727,-8.45454 33.13637,-8.45454 12.13636,0 22.5,3.40909 10.43181,3.40909 18.47727,9.95454 8.04545,6.47728 13.09091,15.88637 5.11363,9.40909 6.54545,21.54545 z m 149.5227,20.93182 q 0,22.84091 -8.65909,38.86364 -8.59091,16.02272 -23.45455,24.47727 -14.79545,8.38636 -33.27273,8.38636 -18.61363,0 -33.40909,-8.45454 -14.79545,-8.45455 -23.38636,-24.47727 -8.59091,-16.02273 -8.59091,-38.79546 0,-22.84091 8.59091,-38.86364 8.59091,-16.02272 23.38636,-24.40909 14.79546,-8.45454 33.40909,-8.45454 18.47728,0 33.27273,8.45454 14.86364,8.38637 23.45455,24.40909 8.65909,16.02273 8.65909,38.86364 z m -29.93182,0 q 0,-14.79545 -4.43182,-24.95454 -4.36364,-10.1591 -12.34091,-15.4091 -7.97727,-5.25 -18.68182,-5.25 -10.70454,0 -18.68182,5.25 -7.97727,5.25 -12.40909,15.4091 -4.36363,10.15909 -4.36363,24.95454 0,14.79546 4.36363,24.95455 4.43182,10.15909 12.40909,15.40909 7.97728,5.25 18.68182,5.25 10.70455,0 18.68182,-5.25 7.97727,-5.25 12.34091,-15.40909 4.43182,-10.15909 4.43182,-24.95455 z m 51.74986,69.81818 V 283.35848 h 55.9091 q 15.40909,0 25.70454,4.56818 10.29546,4.56818 15.47727,12.68182 5.18182,8.04545 5.18182,18.54545 0,8.18182 -3.27273,14.38637 -3.27272,6.13636 -9,10.09091 -5.65909,3.88636 -12.95454,5.52272 v 1.36364 q 7.97727,0.34091 14.93182,4.5 7.02272,4.15909 11.38636,11.65909 4.36364,7.43182 4.36364,17.72727 0,11.11364 -5.52273,19.84091 -5.45455,8.65909 -16.15909,13.70455 -10.70455,5.04545 -26.38636,5.04545 z m 29.52273,-24.13636 h 24.06818 q 12.34091,0 18,-4.70455 5.65909,-4.77272 5.65909,-12.68181 0,-5.79546 -2.79545,-10.22728 -2.79545,-4.43182 -7.97727,-6.95454 -5.11364,-2.52273 -12.20455,-2.52273 h -24.75 z m 0,-57.06818 h 21.88637 q 6.06818,0 10.77272,-2.11364 4.77273,-2.18182 7.5,-6.13636 2.79546,-3.95455 2.79546,-9.47728 0,-7.56818 -5.38637,-12.20454 -5.31818,-4.63636 -15.13636,-4.63636 h -22.43182 z"
       id="text1"
       aria-label="JACOB" />
  </g>
</svg>
