<?xml version="1.0" encoding="UTF-8" standalone="no"?>
<!-- Created with Inkscape (http://www.inkscape.org/) -->

<svg
   width="505.02286"
   height="139.63635"
   viewBox="0 0 505.02286 139.63635"
   version="1.1"
   id="svg1"
   xmlns="http://www.w3.org/2000/svg"
   xmlns:svg="http://www.w3.org/2000/svg">
  <defs
     id="defs1" />
  <g
     id="layer1"
     transform="translate(-246.76631,-283.35849)">
    <path
       style="font-weight:bold;font-size:192px;font-family:INTER;-inkscape-font-specification:'INTER Bold';fill:#ffffff"
       d="M 246.76631,422.99484 V 283.35848 h 55.09091 q 15.81818,0 27,5.65909 11.25,5.59091 17.11363,15.88636 5.93182,10.22728 5.93182,24.06819 0,13.90909 -6,23.93181 -6,9.95455 -17.38636,15.27273 -11.31818,5.31818 -27.40909,5.31818 h -36.88637 v -23.72727 h 32.11364 q 8.45454,0 14.04545,-2.31818 5.59091,-2.31818 8.31819,-6.95455 2.79545,-4.63636 2.79545,-11.52272 0,-6.95455 -2.79545,-11.72728 -2.72728,-4.77272 -8.38637,-7.22727 -5.59091,-2.52273 -14.11363,-2.52273 h -19.9091 v 115.5 z m 75.40909,-63.54545 34.70454,63.54545 h -32.59091 l -33.95454,-63.54545 z m 50.59091,63.54545 V 283.35848 h 94.09091 v 24.34091 h -64.56819 v 33.27273 h 59.72728 v 24.3409 h -59.72728 v 33.34091 h 64.84091 v 24.34091 z m 141.68195,0 H 482.8119 l 48.20454,-139.63636 h 38.04546 l 48.13636,139.63636 H 585.5619 L 550.58462,315.26757 h -1.09091 z m -1.97727,-54.88636 h 74.72727 v 23.04545 h -74.72727 z m 171.00003,54.88636 h -49.5 V 283.35848 h 49.90909 q 21.06818,0 36.27273,8.38636 15.20454,8.31818 23.38636,23.93182 8.25,15.61364 8.25,37.36364 0,21.81818 -8.25,37.5 -8.18182,15.68182 -23.52273,24.06818 -15.27272,8.38636 -36.54545,8.38636 z m -19.97727,-25.29545 h 18.75 q 13.09091,0 22.02272,-4.63637 9,-4.70454 13.5,-14.52272 4.56819,-9.88637 4.56819,-25.5 0,-15.47728 -4.56819,-25.29546 -4.5,-9.81818 -13.43181,-14.45454 -8.93182,-4.63637 -22.02273,-4.63637 h -18.81818 z"
       id="text1"
       aria-label="READ" />
  </g>
</svg>
