<?xml version="1.0" encoding="UTF-8" standalone="no"?>
<!-- Created with Inkscape (http://www.inkscape.org/) -->

<svg
   width="155.03831mm"
   height="129.95988mm"
   viewBox="0 0 155.03831 129.95988"
   version="1.1"
   id="svg5"
   xml:space="preserve"
   xmlns="http://www.w3.org/2000/svg"
   xmlns:svg="http://www.w3.org/2000/svg"><defs
     id="defs2" /><g
     id="layer1"
     transform="translate(-29.735827,-87.416166)"><path
       style="fill:#ffffff;fill-opacity:1;fill-rule:evenodd;stroke:none;stroke-width:0.799999;stroke-linecap:round;stroke-linejoin:round;stop-color:#000000"
       d="m 36.632389,146.08172 -4.030459,4.20959 -2.149577,-11.64354 26.511459,-46.753318 4.86542,-4.116296 3.374628,-0.361992 -4.657418,6.090471 -22.212304,42.454155 7.523522,-0.26869 42.364593,-22.7497 4.030462,0.31348 -0.537393,2.32871 -27.675816,18.76395 6.806996,-0.0896 0.716526,0.98522 h 21.854084 l 0.98522,-0.98522 20.689688,0.26869 0.62696,0.80609 60.99427,3.6722 7.38599,2.96204 0.67492,3.48669 -21.13751,1.34349 -3.6722,1.07479 h -13.34529 l -0.5374,-0.80609 -11.19571,0.0896 -0.98523,0.5374 -6.44873,-0.0896 -1.25392,0.98522 -30.900178,0.44783 1.34348,2.59741 44.872438,-1.25392 0.80609,0.71652 2.14958,0.0896 v 0.71653 h -1.70175 l -1.88088,1.25392 -2.59741,0.17913 -0.0896,-0.44783 -6.2696,0.17913 -2.50784,1.79132 -32.243668,0.35826 -0.35826,0.98522 -4.12003,0.0896 -0.35826,-0.62696 h -1.07479 l -0.71653,1.52262 -12.270503,0.0896 0.268697,3.31393 76.578704,-1.07479 29.11647,2.1037 -0.57,2.5333 -10.00654,3.48329 -45.21943,4.55994 -14.75649,0.69666 0.25333,0.50666 h 1.45665 l 0.31667,0.82333 -9.24656,0.18999 -0.56999,-1.01332 h -1.83664 l -1.01332,1.07666 -8.866558,0.12666 -1.13998,-0.50666 -21.392879,0.51162 -0.626959,1.25392 -14.106605,0.35826 c 0,0 -1.164354,-0.67174 -1.298704,-1.07479 l -1.880879,-0.13434 32.333236,24.89927 5.10524,3.49307 v 2.68697 l -6.71743,-2.23914 -42.185461,-27.76538 -1.343487,-2.41828 h -4.030458 l 6.090471,10.65833 16.569662,27.22798 3.851327,4.47829 -0.626961,1.34348 -7.075693,-4.38872 -22.122738,-34.57237 -3.851327,-8.68788 2.428209,-8.26442 3.035301,0.29307 0.405296,2.83987 0.91654,0.413 0.379995,4.43327 2.089974,0.19 -0.01583,-0.6175 -0.965821,-0.45912 -0.095,-3.83162 0.719049,-2.62957 1.549727,-0.54408 4.761136,6.4986 0.918322,-0.0317 0.506661,-1.29832 H 47.8577 l 0.538327,0.85499 6.998246,-0.095 4.813273,-4.65494 -1.678312,-2.94496 h -3.134961 l -0.791657,1.04498 h -4.24328 l -1.013321,-0.85499 -1.203318,0.095 -8.393153,0.0259 -0.747204,-0.37424 c -2.878566,0.003 -5.945561,-0.15762 -8.561089,-0.18997 l 2.279972,-1.80501 0.126665,-3.16663 -3.008296,-2.2483 -0.06333,-0.665 9.280468,-0.37006 10.922614,-0.76992 1.266651,-0.88666 3.324958,-0.12666 0.791657,1.29831 3.198293,-0.095 2.089974,-2.75497 -0.06333,-0.98165 -2.659967,-3.32496 -7.568239,0.0317 -1.709979,1.70998 -2.058307,-0.0633 -0.253331,-0.69666 -5.072036,5.04673 -2.510911,0.0841 -0.769264,-3.56358 0.245646,-3.3035 3.008296,-2.50707 -0.823323,-0.85499 -3.032938,-0.0896 z"
       id="path644" /></g></svg>
