<?xml version="1.0" encoding="UTF-8" standalone="no"?>
<svg
	viewBox="0 0 511.46172 293.99792"
	fill="#ffffff"
	version="1.1"
	width="511.46173"
	height="293.99792"
	xmlns="http://www.w3.org/2000/svg"
>
	<path
		d="m 214.26027,113.4151 v -3.17016 q 0,-15.175575 2.3006,-19.152345 2.3006,-3.97678 12.33455,-11.53643 5.2572,-3.92989 7.29909,-7.31579 a 15.522124,15.757075 0 0 0 2.03266,-8.441289 q 0,-6.180901 -3.88053,-9.707484 a 13.470986,13.674891 0 0 0 -9.38719,-3.526584 q -14.54275,0 -16.30747,20.906267 l -22.52556,-3.170178 q 2.49462,-18.852215 13.53567,-28.569079 11.04103,-9.716863 26.97893,-9.707484 16.27051,0 27.31154,9.444867 a 29.833891,30.285474 0 0 1 11.08723,24.095194 q 0.0554,18.10188 -18.25697,30.33237 -7.95509,5.35552 -9.63666,8.366255 -1.68155,3.01072 -1.66308,11.10499 z m 25.38976,32.57401 -25.80553,0.0562 -0.0647,-25.2207 h 25.7963 z"
		fill="#ffffff"
	/>
	<path
		d="m 111.64795,253.76563 a 39.729244,40.33061 0 0 1 -8.67576,1.00357 q -13.914471,0 -18.635781,-6.05896 -4.72132,-6.05898 -5.4697,-15.25061 a 88.032614,89.365129 0 0 1 -9.82143,0.69406 q -19.68909,0 -31.41383,-15.64452 -11.724748,-15.64452 -11.789424,-38.2578 0,-22.08805 11.336694,-38.18277 11.3367,-16.09472 33.39105,-16.1041 21.75868,0 33.169291,16.01968 11.41061,16.0197 11.41061,38.50167 0,18.06436 -6.46756,30.06975 -6.46755,12.00539 -15.365051,17.19209 0,8.11303 9.128491,8.11303 2.66093,0 9.23935,-0.77848 z M 70.495849,146.14855 q -19.14396,0 -19.13472,34.13096 0,34.28101 19.06081,34.28101 19.28254,0 19.28254,-33.82143 -0.037,-34.59054 -19.20863,-34.59054 z"
		fill="#ffffff"
	/>
	<path
		d="m 195.62449,155.00253 v 77.98815 h -20.99182 v -13.28096 q -5.93168,14.89418 -22.66416,14.90356 -8.67576,0 -13.31391,-3.28273 a 17.850442,18.120637 0 0 1 -6.66159,-8.95714 q -2.01417,-5.62753 -2.01417,-16.41362 v -50.95726 h 21.98967 v 50.95726 q 0,10.51409 8.51869,10.50471 a 12.011167,12.192976 0 0 0 7.53008,-2.50424 11.087231,11.255054 0 0 0 4.06532,-5.37429 q 0.87774,-2.81376 0.92393,-9.80128 v -43.78216 z"
		fill="#ffffff"
	/>
	<path d="m 237.00757,155.00253 v 77.98815 h -22.66414 v -77.98815 z" fill="#ffffff" />
	<path
		d="m 308.36315,155.00253 v 14.35957 l -34.27803,46.89606 h 35.80252 v 16.76065 h -60.48085 v -16.78879 l 33.88997,-45.55483 H 252.2248 v -15.67266 z"
		fill="#ffffff"
	/>
	<path d="M 322.36078,232.99068 V 127.58709 h 22.66414 v 105.40359 z" fill="#ffffff" />
	<path
		d="m 432.67873,197.85614 h -49.45829 q -0.0831,2.08219 -0.0831,3.62976 0,8.3475 4.37945,12.5869 a 14.588948,14.809775 0 0 0 10.45896,4.29569 q 11.3367,0 13.61882,-12.2774 l 20.53909,1.53819 q -8.61108,27.04027 -34.92477,27.03089 -11.47528,0 -19.50429,-4.6896 a 36.356879,36.907198 0 0 1 -13.24006,-13.62799 q -5.211,-8.96654 -5.211,-21.46902 0,-18.60836 10.45897,-30.01347 10.45894,-11.40513 26.93272,-11.48016 a 34.961735,35.490937 0 0 1 25.40824,10.58913 q 10.62527,10.63603 10.62527,33.88708 z m -49.52297,-13.35599 h 27.31154 q -1.06253,-16.06658 -13.00901,-16.06658 -12.82423,0 -14.32101,16.06658 z"
		fill="#ffffff"
	/>
	<path
		d="m 468.94321,232.99068 h -21.98044 v -77.98815 h 20.77008 v 14.50964 q 4.78599,-16.20728 16.57542,-16.21666 c 1.11795,0 2.48538,0.0845 4.11151,0.23448 v 22.70707 q -6.92029,0 -10.76385,2.15723 -3.84358,2.15722 -6.27353,7.76598 -2.43919,5.62753 -2.43919,15.09115 z"
		fill="#ffffff"
	/>

	<path
		d="m 263.2715,280.85626 v -31.03032 h 20.9091 v 5.40909 h -14.34849 v 7.39395 h 13.27273 v 5.40909 h -13.27273 v 7.4091 h 14.4091 v 5.40909 z"
		fill="#ffffff"
	/>
	<path
		d="m 295.74125,267.40171 v 13.45455 h -6.45455 v -23.27274 h 6.15152 v 4.10606 h 0.27272 q 0.77273,-2.0303 2.59092,-3.21212 1.81818,-1.19697 4.40909,-1.19697 2.42424,0 4.22728,1.0606 1.80303,1.06061 2.80303,3.03031 1,1.95455 1,4.66667 v 14.81819 h -6.45455 v -13.66667 q 0.0151,-2.13637 -1.09091,-3.33334 -1.10606,-1.21212 -3.04546,-1.21212 -1.30303,0 -2.30303,0.5606 -0.98485,0.56061 -1.54546,1.63637 -0.54545,1.06061 -0.5606,2.56061 z"
		fill="#ffffff"
	/>
	<path
		d="m 328.19579,257.58352 v 4.84849 h -14.01517 v -4.84849 z m -10.83334,-5.57576 h 6.45455 v 21.69698 q 0,0.89394 0.27272,1.39394 0.27273,0.48485 0.75758,0.68182 0.5,0.19697 1.15152,0.19697 0.45454,0 0.90909,-0.0758 0.45454,-0.0909 0.69697,-0.13636 l 1.01515,4.80303 q -0.48485,0.15152 -1.36364,0.34849 -0.87879,0.21212 -2.13636,0.25757 -2.33334,0.0909 -4.09092,-0.62121 -1.74242,-0.71212 -2.71212,-2.21212 -0.9697,-1.5 -0.95454,-3.78788 z"
		fill="#ffffff"
	/>
	<path
		d="m 342.75641,281.31081 q -3.59092,0 -6.18183,-1.45455 -2.57576,-1.4697 -3.9697,-4.15152 -1.39394,-2.69697 -1.39394,-6.37879 0,-3.59091 1.39394,-6.30303 1.39394,-2.71213 3.92425,-4.22728 2.54545,-1.51515 5.9697,-1.51515 2.30303,0 4.28788,0.74242 2,0.72728 3.48485,2.19697 1.5,1.4697 2.33334,3.69698 0.83333,2.21212 0.83333,5.18182 v 1.77273 H 333.7867 v -4.00001 h 13.57577 q 0,-1.39394 -0.60606,-2.4697 -0.60606,-1.07575 -1.68182,-1.68181 -1.06061,-0.62122 -2.4697,-0.62122 -1.4697,0 -2.60606,0.68182 -1.12122,0.66667 -1.75758,1.80303 -0.63636,1.12122 -0.65152,2.5 v 3.80304 q 0,1.72727 0.63637,2.98485 0.65151,1.25758 1.83333,1.93939 1.18182,0.68182 2.80304,0.68182 1.07575,0 1.96969,-0.30303 0.89394,-0.30303 1.53031,-0.90909 0.63636,-0.60606 0.9697,-1.48485 l 5.9697,0.39394 q -0.45455,2.15152 -1.86364,3.75758 -1.39394,1.59091 -3.60606,2.48485 -2.19697,0.87879 -5.07576,0.87879 z"
		fill="#ffffff"
	/>
	<path
		d="m 357.65035,280.85626 v -23.27274 h 6.25758 v 4.06061 h 0.24243 q 0.63636,-2.16667 2.13636,-3.27273 1.5,-1.12122 3.45455,-1.12122 0.48485,0 1.04546,0.0606 0.5606,0.0606 0.98484,0.16667 v 5.72727 q -0.45454,-0.13636 -1.25757,-0.24242 -0.80303,-0.10606 -1.4697,-0.10606 -1.42424,0 -2.54546,0.62121 -1.10606,0.60606 -1.75757,1.69697 -0.63637,1.09091 -0.63637,2.51516 v 13.16667 z"
		fill="#ffffff"
	/>
	<path
		d="m 375.08974,289.58354 v -32.00002 h 6.36364 v 3.90909 h 0.28788 q 0.42424,-0.93939 1.22727,-1.90909 0.81818,-0.98485 2.12121,-1.63637 1.31819,-0.66666 3.27273,-0.66666 2.54546,0 4.69698,1.33333 2.15151,1.31818 3.43939,3.98485 1.28788,2.65152 1.28788,6.65152 0,3.89395 -1.25757,6.57577 -1.24243,2.66666 -3.39395,4.04545 -2.13636,1.36364 -4.78788,1.36364 -1.87879,0 -3.19697,-0.62121 -1.30303,-0.62121 -2.13637,-1.56061 -0.83333,-0.95455 -1.27272,-1.92424 h -0.19697 v 12.45455 z m 6.31818,-20.36365 q 0,2.07576 0.57576,3.62121 0.57576,1.54546 1.66667,2.4091 1.09091,0.84848 2.65152,0.84848 1.57575,0 2.66666,-0.86363 1.09091,-0.87879 1.65152,-2.42425 0.57576,-1.56061 0.57576,-3.59091 0,-2.01515 -0.56061,-3.54546 -0.5606,-1.5303 -1.65151,-2.39394 -1.09091,-0.86364 -2.68182,-0.86364 -1.57576,0 -2.66667,0.83334 -1.07576,0.83333 -1.65152,2.36364 -0.57576,1.5303 -0.57576,3.60606 z"
		fill="#ffffff"
	/>
	<path
		d="m 402.07463,280.85626 v -23.27274 h 6.25758 v 4.06061 h 0.24243 q 0.63636,-2.16667 2.13636,-3.27273 1.5,-1.12122 3.45455,-1.12122 0.48485,0 1.04545,0.0606 0.56061,0.0606 0.98485,0.16667 v 5.72727 q -0.45454,-0.13636 -1.25757,-0.24242 -0.80303,-0.10606 -1.4697,-0.10606 -1.42425,0 -2.54546,0.62121 -1.10606,0.60606 -1.75758,1.69697 -0.63636,1.09091 -0.63636,2.51516 v 13.16667 z"
		fill="#ffffff"
	/>
	<path
		d="m 419.51401,280.85626 v -23.27274 h 6.45455 v 23.27274 z m 3.24242,-26.27274 q -1.43939,0 -2.46969,-0.95455 -1.01516,-0.9697 -1.01516,-2.31818 0,-1.33334 1.01516,-2.28788 1.0303,-0.9697 2.46969,-0.9697 1.4394,0 2.45455,0.9697 1.0303,0.95454 1.0303,2.28788 0,1.34848 -1.0303,2.31818 -1.01515,0.95455 -2.45455,0.95455 z"
		fill="#ffffff"
	/>
	<path
		d="m 450.48371,264.21989 -5.9091,0.36363 q -0.15151,-0.75757 -0.65151,-1.36363 -0.5,-0.62122 -1.31819,-0.98485 -0.80303,-0.37879 -1.92424,-0.37879 -1.5,0 -2.53031,0.63636 -1.0303,0.62121 -1.0303,1.66667 0,0.83333 0.66667,1.40909 0.66666,0.57576 2.28788,0.92425 l 4.21212,0.84848 q 3.39394,0.69697 5.06061,2.24243 1.66667,1.54545 1.66667,4.06061 0,2.28788 -1.34849,4.01515 -1.33333,1.72727 -3.66667,2.69697 -2.31818,0.95455 -5.34848,0.95455 -4.62122,0 -7.36365,-1.92425 -2.72727,-1.93939 -3.19697,-5.27273 l 6.34849,-0.33333 q 0.28788,1.40909 1.39394,2.15152 1.10606,0.72727 2.83334,0.72727 1.69697,0 2.72727,-0.65152 1.04546,-0.66666 1.06061,-1.71212 -0.0152,-0.87879 -0.74243,-1.43939 -0.72727,-0.57576 -2.24242,-0.87879 l -4.03031,-0.80303 q -3.40909,-0.68182 -5.07576,-2.36364 -1.65152,-1.68182 -1.65152,-4.28788 0,-2.24243 1.21213,-3.86364 1.22727,-1.62122 3.43939,-2.5 2.22728,-0.87879 5.21213,-0.87879 4.40909,0 6.9394,1.86363 2.54545,1.86364 2.9697,5.07577 z"
		fill="#ffffff"
	/>
	<path
		d="m 465.69587,281.31081 q -3.59092,0 -6.18183,-1.45455 -2.57576,-1.4697 -3.9697,-4.15152 -1.39394,-2.69697 -1.39394,-6.37879 0,-3.59091 1.39394,-6.30303 1.39394,-2.71213 3.92425,-4.22728 2.54546,-1.51515 5.9697,-1.51515 2.30303,0 4.28788,0.74242 2,0.72728 3.48485,2.19697 1.5,1.4697 2.33334,3.69698 0.83333,2.21212 0.83333,5.18182 v 1.77273 h -19.65153 v -4.00001 h 13.57577 q 0,-1.39394 -0.60606,-2.4697 -0.60606,-1.07575 -1.68182,-1.68181 -1.06061,-0.62122 -2.4697,-0.62122 -1.4697,0 -2.60606,0.68182 -1.12121,0.66667 -1.75758,1.80303 -0.63636,1.12122 -0.65151,2.5 v 3.80304 q 0,1.72727 0.63636,2.98485 0.65152,1.25758 1.83333,1.93939 1.18182,0.68182 2.80304,0.68182 1.07576,0 1.9697,-0.30303 0.89394,-0.30303 1.5303,-0.90909 0.63636,-0.60606 0.9697,-1.48485 l 5.9697,0.39394 q -0.45455,2.15152 -1.86364,3.75758 -1.39394,1.59091 -3.60606,2.48485 -2.19697,0.87879 -5.07576,0.87879 z"
		fill="#ffffff"
	/>
</svg>
