<?xml version="1.0" encoding="UTF-8" standalone="no"?>
<svg
   id="svg"
   version="1.1"
   width="800"
   height="769"
   xmlns="http://www.w3.org/2000/svg"
   xmlns:svg="http://www.w3.org/2000/svg">
  <defs
     id="defs1" />
  <path
     id="path21"
     style="fill:#ffffff;fill-opacity:1;stroke:none;stroke-width:1.32423;stroke-opacity:1"
     d="m 270.68555,28.570312 c -7.71489,-0.04498 -7.99024,0.08067 -14.86133,6.837891 -5.11804,5.033191 -8.54949,7.229088 -12.75586,8.164063 -3.1647,0.703443 -7.24375,2.670501 -9.06445,4.371093 -6.26213,5.848943 -7.03125,8.990207 -7.03125,28.699219 v 18.453125 l 5.26172,7.876957 c 4.86097,7.27937 5.20117,8.38067 4.47851,14.48242 -0.98524,8.31882 1.59152,13.71954 8.83594,18.51367 2.893,1.9145 5.25976,4.30364 5.25976,5.31055 0,1.00692 -2.06751,4.95114 -4.5957,8.76367 -7.49828,11.30741 -10.2071,20.758 -10.95117,38.20117 -1.31131,30.74065 9.84254,63.05457 30.02539,86.99024 l 5.69922,6.75976 -4.79883,6.53906 c -9.5505,13.01038 -15.24724,30.46127 -15.41016,47.21289 l -0.0762,7.94532 -6.36133,2.97851 c -7.46522,3.49624 -8.09765,3.58317 -8.09765,1.11719 0,-1.02419 -3.00413,-10.70647 -6.67774,-21.51758 -3.67359,-10.81111 -11.41934,-35.91914 -17.21289,-55.79492 -13.03373,-44.71446 -17.09159,-55.65486 -31.77929,-85.69141 -20.61704,-42.16213 -35.32551,-64.22461 -42.81446,-64.22461 -7.49562,0 -7.8076,13.34706 -0.93554,39.97461 9.73227,37.71024 52.77046,161.7986 78.20507,225.48242 28.05212,70.23759 75.23053,170.37473 83.58008,177.4004 7.55862,6.36018 16.72287,3.70369 23.46485,-6.80274 10.75125,-16.75441 12.30897,-23.18712 20.76562,-85.79687 7.52896,-55.74169 12.13123,-84.45569 20.48633,-127.78711 3.58109,-18.57233 7.74575,-41.21623 9.2539,-50.32032 1.50815,-9.10408 3.01237,-18.16931 3.34376,-20.14453 0.41195,-2.45551 -0.36729,-4.75891 -2.4668,-7.2832 -1.68888,-2.03057 -3.75526,-4.99313 -4.5918,-6.58398 -3.63348,-6.90985 -0.0871,-7.92438 3.92578,-1.12305 3.37305,5.71688 10.07489,9.97461 15.70117,9.97461 7.18745,0 27.39373,-7.52821 49.94336,-18.60547 11.7883,-5.79086 21.68365,-10.5293 21.99024,-10.5293 0.30657,0 0.93387,4.02325 1.39258,8.93946 1.10545,11.84733 27.06631,155.99761 34.75976,193.00586 3.33098,16.02318 8.06581,37.18927 10.52149,47.03515 5.2074,20.87878 8.55859,39.16388 8.55859,46.70313 0,6.71281 4.41422,12.77822 12.95508,17.79882 5.588,3.28484 7.51199,3.67188 18.2832,3.67188 11.69991,0 12.39534,-0.17747 24.71875,-6.29297 13.90623,-6.901 31.26841,-19.1161 37.28711,-26.23437 10.29284,-12.17325 12.7007,-26.7199 5.64649,-34.11524 -4.61948,-4.84284 -5.29704,-6.97176 -12.88672,-40.42969 -3.65863,-16.12853 -8.39507,-35.91049 -10.52344,-43.96093 -5.89912,-22.31315 -14.77801,-62.57136 -25.10156,-113.8125 -5.13576,-25.49143 -11.19073,-54.53489 -13.45508,-64.53907 -2.26436,-10.00419 -3.75678,-19.12783 -3.31641,-20.27539 1.02139,-2.6617 15.53999,-9.36858 37.34571,-17.25195 20.12599,-7.27613 38.46333,-15.62418 48.08984,-21.89453 7.8497,-5.11304 13.07965,-14.1202 16.83203,-28.98828 3.30101,-13.07967 2.03462,-36.9986 -2.69727,-50.945315 -7.72511,-22.768863 -21.31586,-43.936937 -30.73632,-47.873047 -5.06001,-2.114208 -10.86184,-1.237527 -32.91993,4.972656 -48.8621,13.756527 -151.19715,56.067589 -190.82812,78.900386 -11.74667,6.76768 -13.76563,7.47914 -13.76563,4.84766 0,-1.13782 1.144,-2.36709 2.54102,-2.73242 4.79157,-1.25303 5.69786,-6.62815 4.11523,-24.39844 -1.86831,-20.978152 -3.51622,-30.26578 -6.67578,-37.636717 -2.81458,-6.566147 -4.63471,-7.179551 -9.63281,-3.248047 -6.32137,4.972403 -11.96043,30.387118 -14.9082,67.187504 -0.48131,6.00869 -1.27726,10.92578 -1.76953,10.92578 -0.49227,0 -2.88976,-2.11419 -5.32618,-4.69727 -5.48662,-5.81688 -14.19929,-10.31441 -26.68164,-13.77344 -5.26656,-1.45944 -9.83938,-2.9175 -10.16211,-3.24023 -0.32274,-0.32274 0.76257,-6.62465 2.41016,-14.00391 l 2.99414,-13.416012 -3.43359,-3.433594 c -1.92941,-1.929408 -5.65761,-3.793943 -8.50977,-4.255859 L 300.46875,80.130859 299.5957,68.707031 C 298.80249,58.321254 298.14156,56.23168 292.3125,45.677734 284.28123,31.136565 281.11281,28.631072 270.68555,28.570312 Z m -0.0352,18.132813 c 0.64844,-0.158871 1.34212,-0.07854 2.10156,0.212891 1.84473,0.707881 2.11836,2.007564 1.50586,7.126953 -0.41208,3.444178 -1.08199,7.157511 -1.49023,8.25 -1.12884,3.020973 0.94558,5.287678 6.64453,7.257812 4.95364,1.712479 5.16155,2.01865 5.09375,7.525391 -0.0389,3.157669 -0.53781,9.913428 -1.10938,15.011719 l -1.03906,9.269529 4.98047,5.77344 4.98047,5.77539 -2.21484,11.55469 c -1.21825,6.35507 -2.2574,13.28997 -2.3086,15.41211 -0.217,8.99607 -1.25006,9.23684 -10.55273,2.44531 -12.80173,-9.34605 -25.21963,-20.50771 -24.36133,-21.89648 0.41716,-0.67496 2.81073,-2.08621 5.32031,-3.13477 2.50957,-1.04857 4.91715,-2.82807 5.34961,-3.95508 1.46328,-3.81319 -0.6994,-8.29211 -4.83203,-10.00391 -2.22391,-0.92116 -6.40346,-3.383755 -9.28711,-5.472651 -6.42457,-4.653932 -6.77638,-8.438858 -1.27148,-13.712891 2.18499,-2.093334 3.97265,-4.601724 3.97265,-5.574219 0,-0.972509 -2.43275,-4.408888 -5.40625,-7.634765 -3.15435,-3.422059 -5.21608,-6.856553 -4.95117,-8.246094 0.63287,-3.319565 5.78758,-3.716244 11.98438,-0.921875 6.6271,2.988409 8.95885,1.685841 11.61718,-6.490234 1.77988,-5.474264 3.32814,-8.095653 5.27344,-8.572266 z m 336.63867,16.914063 c 2.49037,0 4.55875,1.306821 6.8086,4.302734 9.63381,12.828537 18.31294,38.225728 18.21484,53.300778 -0.0508,7.80692 -2.71728,22.23488 -4.42383,23.94141 -1.3837,1.38372 -30.4185,14.28295 -46.68359,20.74023 -10.19657,4.04809 -29.86101,11.84661 -43.69922,17.33008 -30.89478,12.24229 -105.84624,44.1748 -118.12109,50.32422 -4.95334,2.4815 -10.42886,4.95353 -12.16797,5.49414 -2.94543,0.91557 -3.09841,0.72263 -2.23047,-2.80664 0.51247,-2.08385 1.24117,-14.81305 1.61719,-28.28711 0.68213,-24.44343 0.67278,-24.53348 -3.59766,-40.38867 -2.35402,-8.73993 -4.54004,-18.00586 -4.85742,-20.58984 l -0.57617,-4.69727 44.14453,-18.34961 c 24.2793,-10.09185 54.87059,-22.48781 67.98047,-27.546874 30.8715,-11.913204 92.98396,-32.767578 97.59179,-32.767578 z m 0.13477,1.892578 c -4.00162,-0.232754 -12.46536,2.53656 -38.38477,11.144531 -31.95205,10.611445 -77.78983,28.314303 -158.05468,61.042973 -13.09965,5.34149 -13.19556,5.56676 -8.9668,21.21093 5.07547,18.77657 6.32833,32.7709 5.03711,56.28125 -0.70004,12.7463 -1.16538,23.17441 -1.03516,23.17383 0.13022,-5.8e-4 6.93931,-3.058 15.13281,-6.79297 27.71122,-12.63198 80.88248,-35.05403 128.4043,-54.14843 26.01165,-10.45155 54.26282,-22.21833 62.78125,-26.14844 14.62124,-6.74576 15.57334,-7.55168 17.00391,-14.41602 2.38143,-11.42696 1.46812,-27.35526 -2.21094,-38.587889 -4.52925,-13.828362 -11.04719,-26.557665 -15.79688,-30.849609 -1.19521,-1.080025 -2.09123,-1.804359 -3.91015,-1.910156 z M 305.94922,137.77344 c 3.72678,0 31.08087,18.00495 41.26367,27.16015 l 6.47656,5.82227 -2.46093,18.93164 c -5.28369,40.64837 -11.62465,84.62213 -12.38086,85.8457 -1.19285,1.93008 -4.69626,1.5689 -13.21875,-1.36328 -9.68508,-3.33216 -15.44758,-3.33644 -26.03516,-0.0176 -4.61693,1.44725 -9.09361,2.63844 -9.94727,2.64844 -2.26648,0.0249 -10.46775,-9.92529 -16.47656,-19.99023 -11.25917,-18.85943 -19.42337,-46.24935 -19.96289,-66.97657 -0.25872,-9.93978 1.83829,-15.39128 10.47852,-27.2539 7.29844,-10.02043 8.41433,-10.19078 19.00781,-2.88672 11.92681,8.22336 11.18899,8.81756 17.7793,-14.30664 1.89734,-6.65743 2.58535,-7.61328 5.47656,-7.61328 z m 72.5039,12.28515 c 0.80777,0.25515 3.51962,8.17209 6.0254,17.59375 4.45394,16.74684 4.55229,17.67901 4.40234,41.62891 -0.0843,13.47403 -0.71607,26.28573 -1.40234,28.4707 l -1.2461,3.97266 -6.07031,-6.40234 c -8.90084,-9.3919 -9.46025,-12.11089 -6.97266,-33.8125 1.1542,-10.06914 2.09766,-23.08143 2.09766,-28.91797 0,-13.85479 1.30192,-23.12203 3.16601,-22.53321 z m -0.36523,5.06641 c -0.89548,0 -1.62695,5.49848 -1.62695,12.2207 0,6.72223 -0.93472,20.80829 -2.07617,31.30078 -2.37193,21.80314 -1.76575,25.75801 5.21875,34.0586 4.43436,5.26993 5.24855,5.60308 6.82226,2.79101 2.97248,-5.31151 0.46722,-57.01684 -3.36719,-69.49414 -1.83853,-5.98267 -4.07521,-10.87695 -4.9707,-10.87695 z m 144.38672,59.45312 c 2.99739,0 3.1568,0.6161 13.63477,52.43946 14.96252,74.00359 31.07586,140.17594 47.85156,196.51562 4.8795,16.38735 9.12399,30.98867 9.43164,32.44532 1.19648,5.66524 -16.35612,22.293 -32.76172,31.0371 -11.26509,6.00424 -24.13718,5.52622 -27.64453,-1.02734 -1.6165,-3.02044 -16.56007,-85.84165 -25.2461,-139.92187 -14.8143,-92.2358 -20.17517,-123.24126 -23.43359,-135.51172 -5.83093,-21.95812 -6.10334,-20.44178 4.41016,-24.69141 13.06534,-5.28111 31.02405,-11.28516 33.75781,-11.28516 z m 0.32422,1.66211 c -5.16441,0.10165 -36.57551,11.00129 -39.48242,13.90821 -1.85441,1.85442 -1.6021,5.38235 1.22265,17.09765 1.95767,8.11916 10.79041,58.17841 19.62891,111.24219 19.74924,118.56854 28.36587,164.95349 31.30273,168.49219 3.81299,4.59438 16.83119,3.27342 27.32813,-2.77149 11.68234,-6.72754 26.83319,-19.92393 28.3457,-24.68945 0.62028,-1.95432 -4.08948,-21.71657 -10.46484,-43.91601 -15.167,-52.81246 -27.39326,-103.06402 -43.17188,-177.4375 -7.07251,-33.33675 -13.39172,-61.14563 -14.04297,-61.79688 -0.0948,-0.0948 -0.32172,-0.13568 -0.66601,-0.12891 z M 314.25391,283.4668 c 6.82597,0.0327 15.41668,3.48232 19.16406,7.69531 3.0828,3.46583 2.77665,7.35704 -4.56445,58.06641 -2.86604,19.79741 -5.21094,36.33438 -5.21094,36.74804 0,4.21399 -25.33018,-9.12431 -35.03516,-18.44922 -4.21264,-4.04767 -8.77552,-10.10324 -10.65234,-14.13476 -2.86855,-6.16183 -3.2832,-8.8929 -3.2832,-21.61914 0,-12.54153 0.43401,-15.48681 3.11914,-21.1875 7.06856,-15.00697 23.43667,-27.18144 36.46289,-27.11914 z m -55.73047,79.42578 c 1.82566,0 5.20246,3.0413 9.92773,8.93945 3.93861,4.91621 8.48899,10.12181 10.11133,11.57031 5.89202,5.2607 5.92399,6.90575 0.26562,13.33399 -2.87616,3.26749 -8.41154,10.99285 -12.30078,17.16797 -3.88924,6.17512 -7.51561,11.22656 -8.06054,11.22656 -2.63341,0 -16.92988,-34.36087 -16.92188,-40.66992 0.009,-6.70317 11.71074,-21.56836 16.97852,-21.56836 z m 42.03906,39.8789 c 2.25313,0.19423 4.39917,1.05922 6.38477,2.6211 8.32204,6.54611 10.93217,18.66623 8.74218,40.59375 -1.78522,17.87487 -4.68973,28.50416 -8.95312,32.76758 -2.83208,2.83207 -4.52825,3.32031 -11.56641,3.32031 -10.58345,0 -14.04028,-2.60345 -20.01953,-15.08008 -3.94349,-8.22865 -4.4777,-10.61217 -4.4707,-19.97461 0.009,-13.51758 1.41559,-18.42537 8.17578,-28.54883 7.22746,-10.8232 14.94763,-16.28188 21.70703,-15.69922 z m 129.5918,109.80664 c -1.12724,-0.009 -2.50198,0.0734 -4.26953,0.20508 -8.8959,0.66291 -24.46068,8.07491 -46.99415,22.37696 -24.8447,15.76899 -45.97851,33.47033 -45.97851,38.51172 0,4.2029 3.06328,9.09723 6.18555,9.88085 4.8511,1.21756 3.65234,3.49776 -3.92188,7.45508 -10.40896,5.43841 -35.5407,24.79819 -39.07812,30.10352 -3.70505,5.55674 -3.49192,7.27194 3.6914,29.80078 4.6726,14.6545 11.4868,38.02855 21.51953,73.81055 2.4821,8.85249 5.15112,15.47601 7.07032,17.54687 4.57381,4.93523 13.92708,4.72916 19.07617,-0.41992 7.732,-7.73201 8.61141,-21.89628 2.67187,-43.04883 -2.18497,-7.78138 -3.9572,-15.18427 -3.9375,-16.45117 0.0244,-1.56506 3.44171,-3.91499 10.66016,-7.33203 12.71159,-6.01737 19.38863,-11.74153 23.74609,-20.35742 4.59269,-9.08096 4.43839,-16.90059 -0.41601,-21.07618 -2.04351,-1.75774 -5.12819,-3.19726 -6.85547,-3.19726 -3.77884,0 -17.23312,6.86359 -29.68945,15.14453 -5.00046,3.3243 -9.30996,6.04305 -9.57618,6.04297 -1.03477,-3.4e-4 -0.4187,-19.30254 0.66993,-20.99024 0.63454,-0.98373 6.20279,-5.0456 12.375,-9.02734 18.42549,-11.88645 26.85937,-20.91114 26.85937,-28.74219 0,-4.83449 -5.91265,-11.1825 -10.87305,-11.67383 -6.69435,-0.66307 -5.62855,-2.85373 3.60743,-7.4082 l 8.65234,-4.26562 1.125,2.98242 c 0.61789,1.64049 2.68179,12.5167 4.58789,24.16992 1.9061,11.65323 4.93278,27.74231 6.72461,35.75391 1.79184,8.01159 4.79122,22.75053 6.66601,32.75195 7.17357,38.2686 16.60741,57.3116 26.50977,53.51172 3.06953,-1.17789 7.07787,-8.67922 8.83594,-16.53516 1.33042,-5.94493 1.20217,-9.89695 -0.77735,-23.85937 -4.73904,-33.42658 -8.90403,-56.83462 -15.42382,-86.6836 -3.65805,-16.74731 -6.34503,-31.24719 -5.97071,-32.22265 0.37431,-0.97545 3.44584,-3.11707 6.82617,-4.75782 4.74349,-2.3024 6.8796,-4.42881 9.35938,-9.32031 3.80979,-7.51501 13.713,-14.65402 13.71289,-9.88476 -3e-5,0.91041 -2.08565,3.31956 -4.63477,5.35351 -4.29757,3.42905 -4.63476,4.23454 -4.63476,11.06055 0,4.04887 2.71658,19.66643 6.03516,34.70508 3.31858,15.03864 8.65325,40.15348 11.85546,55.8125 3.20222,15.65902 7.0479,32.43723 8.54688,37.28515 2.81518,9.10471 8.65284,17.00977 12.5625,17.00977 4.45794,0 10.05536,-4.19322 12.8125,-9.59766 2.50931,-4.91866 2.74897,-6.96725 2.04883,-17.51953 -0.93126,-14.03539 -6.21732,-36.02405 -10.21485,-42.49219 -1.54584,-2.50124 -2.31464,-4.54592 -1.70898,-4.54492 0.60565,0.002 6.62107,2.38447 13.36719,5.29492 19.07432,8.22917 43.68619,16.03373 51.42187,16.30665 5.71764,0.2017 7.53707,-0.31865 10.35742,-2.96485 1.88192,-1.76569 3.42188,-4.57562 3.42188,-6.24414 0,-4.49786 -7.35688,-12.06002 -15.95508,-16.40039 -8.9354,-4.51057 -29.96114,-10.94925 -45.19922,-13.83984 -11.88065,-2.25374 -12.37809,-2.46628 -10.99804,-4.69922 0.58715,-0.95006 2.60372,-1.21911 5.3125,-0.71094 5.27583,0.98974 6.88391,-0.92348 15.64062,-18.59961 9.10342,-18.37597 12.79844,-30.46343 12.77734,-41.79492 -0.0232,-12.4303 -0.90336,-15.51703 -4.70312,-16.4707 -11.27054,-2.82871 -31.79474,18.96879 -40.3418,42.8457 -1.62948,4.55203 -3.65694,8.27734 -4.5039,8.27734 -0.85987,0 -2.184,-3.76734 -3,-8.53125 -2.11153,-12.32699 -7.20156,-22.66413 -12.7793,-25.95508 -4.56012,-2.69053 -4.57338,-2.72767 -3.86719,-10.51562 0.67412,-7.43418 0.5036,-8.02182 -3.49414,-12.01953 -2.94783,-2.94784 -4.11439,-3.81731 -7.49609,-3.84571 z" />
</svg>
